<svg height="511pt" viewBox="0 -11 511.99903 511" width="511pt" xmlns="http://www.w3.org/2000/svg"><path d="m393.335938 490.449219c-6.878907 0-13.75-2.1875-19.746094-6.5625l-117.589844-85.828125-117.589844 85.828125c-11.96875 8.738281-27.445312 8.753906-39.433594.042969-11.988281-8.707032-16.753906-23.433594-12.144531-37.519532l45.289063-138.355468-118.1875-85.46875c-11.992188-8.675782-16.792969-23.378907-12.234375-37.457032 4.558593-14.082031 17.066406-23.179687 31.863281-23.179687h30.457031c5.519531 0 10 4.476562 10 10 0 5.519531-4.480469 9.996093-10 9.996093h-30.457031c-7.238281 0-11.378906 4.828126-12.839844 9.34375-1.460937 4.515626-.933594 10.851563 4.929688 15.089844l124.101562 89.75c3.519532 2.546875 4.992188 7.082032 3.640625 11.214844l-47.558593 145.292969c-2.253907 6.886719 1.050781 12.324219 4.894531 15.117187 3.84375 2.792969 10.035156 4.253906 15.890625-.019531l123.484375-90.128906c3.511719-2.5625 8.277343-2.5625 11.789062 0l123.484375 90.128906c5.855469 4.273437 12.046875 2.8125 15.890625.019531 3.84375-2.792968 7.148438-8.230468 4.894531-15.117187l-47.558593-145.292969c-1.351563-4.132812.121093-8.667969 3.644531-11.214844l124.097656-89.75c5.863282-4.238281 6.394532-10.574218 4.929688-15.089844-1.460938-4.515624-5.601563-9.34375-12.839844-9.34375h-153.152344c-4.339844 0-8.179687-2.792968-9.515625-6.921874l-46.929687-145.179688c-2.226563-6.890625-8.09375-9.347656-12.839844-9.347656-4.75 0-10.617188 2.457031-12.84375 9.347656l-46.929688 145.179688c-1.332031 4.125-5.175781 6.921874-9.515624 6.921874h-42.695313c-5.523437 0-10-4.476562-10-10 0-5.519531 4.476563-9.996093 10-9.996093h35.421875l44.691406-138.257813c4.554688-14.085937 17.0625-23.191406 31.871094-23.191406 14.804688 0 27.316406 9.101562 31.871094 23.191406l44.691406 138.257813h145.871094c14.800781 0 27.308594 9.097656 31.867187 23.179687 4.558594 14.082032-.246093 28.78125-12.238281 37.457032l-118.183594 85.46875 45.289063 138.355468c4.609375 14.085938-.15625 28.8125-12.144531 37.519532-5.984376 4.347656-12.835938 6.519531-19.6875 6.519531zm0 0"/><path d="m104.011719 181.964844c-2.628907 0-5.207031-1.0625-7.066407-2.921875-1.859374-1.859375-2.929687-4.4375-2.929687-7.078125 0-2.628906 1.066406-5.210938 2.929687-7.070313 1.859376-1.859375 4.4375-2.929687 7.066407-2.929687 2.632812 0 5.210937 1.070312 7.070312 2.929687 1.859375 1.871094 2.929688 4.441407 2.929688 7.070313 0 2.640625-1.070313 5.207031-2.929688 7.078125-1.859375 1.859375-4.4375 2.921875-7.070312 2.921875zm0 0"/></svg>