<svg id="Capa_1" enable-background="new 0 0 512 512" height="512" viewBox="0 0 512 512" width="512" xmlns="http://www.w3.org/2000/svg" xmlns:xlink="http://www.w3.org/1999/xlink"><linearGradient id="SVGID_1_" gradientUnits="userSpaceOnUse" x1="35.432" x2="486.571" y1="476.568" y2="25.429"><stop offset="0" stop-color="#560dff"/><stop offset="1" stop-color="#73ecff"/></linearGradient><radialGradient id="SVGID_2_" cx="257.014" cy="256" gradientUnits="userSpaceOnUse" r="256"><stop offset="0" stop-color="#663deb"/><stop offset=".12" stop-color="#6344ea" stop-opacity=".874"/><stop offset=".2989" stop-color="#5a59e8" stop-opacity=".687"/><stop offset=".5146" stop-color="#4b7ae4" stop-opacity=".46"/><stop offset=".7567" stop-color="#38a7e0" stop-opacity=".207"/><stop offset=".9537" stop-color="#25d2db" stop-opacity="0"/></radialGradient><linearGradient id="SVGID_3_" gradientUnits="userSpaceOnUse" x1="84.524" x2="324.108" y1="412.848" y2="173.265"><stop offset="0" stop-color="#0080ff"/><stop offset=".8971" stop-color="#45ede9"/><stop offset="1" stop-color="#4dfae6"/></linearGradient><linearGradient id="SVGID_4_" gradientUnits="userSpaceOnUse" x1="137.237" x2="564.02" y1="478.389" y2="51.607"><stop offset=".1341" stop-color="#3ca1ff"/><stop offset=".2158" stop-color="#3eaafc"/><stop offset=".7453" stop-color="#49e4ec"/><stop offset="1" stop-color="#4dfae6"/></linearGradient><linearGradient id="SVGID_5_" gradientUnits="userSpaceOnUse" x1="15.938" x2="362.655" y1="526.504" y2="179.787"><stop offset="0" stop-color="#18ccc0"/><stop offset=".0087" stop-color="#1acdc1"/><stop offset=".3789" stop-color="#7be2db"/><stop offset=".6782" stop-color="#c2f2ee"/><stop offset=".892" stop-color="#eefbfa"/><stop offset="1" stop-color="#fff"/></linearGradient><linearGradient id="SVGID_6_" gradientUnits="userSpaceOnUse" x1="-1.962" x2="382.557" y1="543.745" y2="159.226"><stop offset="0" stop-color="#18ccc0"/><stop offset=".0961" stop-color="#3ad4c9"/><stop offset=".2774" stop-color="#76e1da"/><stop offset=".4523" stop-color="#a7ece7"/><stop offset=".6164" stop-color="#cdf4f1"/><stop offset=".7671" stop-color="#e8faf9"/><stop offset=".8996" stop-color="#f9fefd"/><stop offset="1" stop-color="#fff"/></linearGradient><linearGradient id="lg1"><stop offset="0" stop-color="#4dfae6"/><stop offset=".115" stop-color="#58fae8"/><stop offset=".3195" stop-color="#77fbec"/><stop offset=".5896" stop-color="#a8fdf3"/><stop offset=".9118" stop-color="#ebfefc"/><stop offset="1" stop-color="#fff"/></linearGradient><linearGradient id="SVGID_7_" gradientUnits="userSpaceOnUse" x1="145.055" x2="419.419" xlink:href="#lg1" y1="381.976" y2="107.611"/><linearGradient id="lg2"><stop offset="0" stop-color="#18ccc0"/><stop offset=".1396" stop-color="#23d0c3"/><stop offset=".3878" stop-color="#42dbca"/><stop offset=".7131" stop-color="#72edd5"/><stop offset="1" stop-color="#a3ffe0"/></linearGradient><linearGradient id="SVGID_8_" gradientUnits="userSpaceOnUse" x1="70.99" x2="345.446" xlink:href="#lg2" y1="426" y2="151.544"/><linearGradient id="SVGID_9_" gradientUnits="userSpaceOnUse" x1="145.129" x2="419.31" xlink:href="#lg1" y1="321.821" y2="47.639"/><linearGradient id="SVGID_10_" gradientUnits="userSpaceOnUse" x1="69.366" x2="342.908" xlink:href="#lg2" y1="367.543" y2="94.001"/><linearGradient id="SVGID_11_" gradientUnits="userSpaceOnUse" x1="256" x2="256" y1="140.358" y2="205.988"><stop offset="0" stop-color="#18ccc0"/><stop offset=".1318" stop-color="#20cfc2" stop-opacity=".868"/><stop offset=".3309" stop-color="#34d6c7" stop-opacity=".669"/><stop offset=".5724" stop-color="#56e3ce" stop-opacity=".428"/><stop offset=".8449" stop-color="#85f4d9" stop-opacity=".155"/><stop offset="1" stop-color="#a3ffe0" stop-opacity="0"/></linearGradient><linearGradient id="SVGID_12_" gradientUnits="userSpaceOnUse" x1="11.071" x2="366.809" y1="367.012" y2="11.274"><stop offset="0" stop-color="#a3ffe0"/><stop offset=".0291" stop-color="#a7ffe1"/><stop offset=".3184" stop-color="#cdffee"/><stop offset=".5859" stop-color="#e9fff7"/><stop offset=".8215" stop-color="#f9fffd"/><stop offset="1" stop-color="#fff"/></linearGradient><g><circle cx="256" cy="256" fill="url(#SVGID_1_)" r="256"/><circle cx="256" cy="256" fill="url(#SVGID_2_)" r="256"/><path d="m179.214 210.297c-20.595 25.594-41.165 50.988-61.429 75.881.298 35.166 1.012 70.332 2.144 105.499.559 16.616 14.532 30.833 31.072 31.522 10 .402 20 .747 30 1.035-1.523-71.312-2.118-142.625-1.787-213.937z" fill="url(#SVGID_3_)"/><path d="m256 179.313c-35.741 71.75-72.316 143.776-105.834 213.504.441 16.755 14.294 30.924 30.834 31.417 60 1.725 120 1.38 180-1.035 16.539-.69 30.513-14.907 31.072-31.522 1.131-35.166 1.846-70.333 2.144-105.499-45.775-34.66-92.263-70.99-138.216-106.865z" fill="url(#SVGID_4_)"/><path d="m150.166 392.817c50.397 1.663 100.794 2.137 151.191 1.425-49.858-50.425-101.796-102.788-152.977-153.338-.066 50.638.529 101.275 1.786 151.913z" fill="url(#SVGID_5_)"/><path d="m148.777 180.139c-.238 20.255-.37 40.51-.397 60.765 27.221 69.583 83.949 127.079 152.977 153.338 20.159-.285 40.318-.76 60.476-1.425 1.76-70.892 2.223-141.785 1.389-212.678-71.481-1.102-142.963-1.102-214.445 0z" fill="url(#SVGID_6_)"/><path d="m394.369 256.036c-46.106-9.946-92.263-20.348-138.369-30.598-46.106 10.25-92.263 20.652-138.369 30.598.017 10.048.068 20.095.153 30.143 92.144 1.012 184.287 1.012 276.431 0 .086-10.048.137-20.096.154-30.143z" fill="url(#SVGID_7_)"/><path d="m394.318 225.893c-46.157-10.351-92.297-20.956-138.318-31.206-46.021 10.25-92.161 20.854-138.318 31.206-.051 10.047-.068 20.095-.051 30.142 92.246.203 184.492.203 276.737 0 .018-10.047.001-20.094-.05-30.142z" fill="url(#SVGID_8_)"/><path d="m394.062 195.751c-46.14-10.756-92.195-21.563-138.062-31.813-45.868 10.25-91.922 21.057-138.062 31.813-.119 10.047-.204 20.095-.255 30.143 92.212-.608 184.423-.608 276.635 0-.051-10.048-.136-20.096-.256-30.143z" fill="url(#SVGID_9_)"/><path d="m393.603 165.608c-46.055-11.161-91.956-22.171-137.603-32.421-45.646 10.25-91.548 21.259-137.603 32.421-.187 10.047-.34 20.095-.459 30.143 92.042-1.417 184.083-1.417 276.125 0-.12-10.048-.273-20.095-.46-30.143z" fill="url(#SVGID_10_)"/><path d="m393.603 165.608c-46.055-11.161-91.956-22.171-137.603-32.421-45.646 10.25-91.548 21.259-137.603 32.421-.187 10.047-.34 20.095-.459 30.143 92.042-1.417 184.083-1.417 276.125 0-.12-10.048-.273-20.095-.46-30.143z" fill="url(#SVGID_11_)"/><path d="m391 75.181c-90-4.658-180-4.658-270 0-8.277.436-15.289 7.543-15.624 15.819-.794 20-1.437 40-1.928 60-.207 8.277 6.502 14.805 14.949 14.608 91.735-2.228 183.471-2.228 275.206 0 8.447.198 15.157-6.331 14.949-14.608-.491-20-1.134-40-1.928-60-.335-8.276-7.347-15.384-15.624-15.819z" fill="url(#SVGID_12_)"/></g></svg>